<svg xmlns="http://www.w3.org/2000/svg" viewBox="0 0 24 24" fill="#F3BA2F">
  <path d="M12.002 0L8.835 3.167l3.167 3.167 3.167-3.167L12.002 0zM15.828 3.826l-1.353 1.353 3.659 3.66H21l-5.172-5.172zM8.176 3.826L3 9h2.839l3.66-3.66-1.323-1.314zM2.839 10.669L0 13.508l2.839 2.839 2.839-2.839-2.839-2.839zm18.326 0l-2.839 2.839 2.839 2.839 2.839-2.839-2.839-2.839zM5.678 14.821H2.839L8 19.993l1.353-1.353-3.675-3.819zm12.648 0l-3.676 3.676 1.353 1.353 5.172-5.172h-2.849zm-6.324 1.323l-1.353-1.353-2.839 2.839 1.353 1.353 2.839-2.839zm2.839-2.839l-1.353 1.353 2.839 2.839 1.353-1.353-2.839-2.839z" />
</svg>
