<svg width="1em" height="1em" viewBox="0 0 1000 1000" xmlns="http://www.w3.org/2000/svg" fill-rule="evenodd" clip-rule="evenodd" stroke-linejoin="round" stroke-miterlimit="2" class="rounded-full mr-2" aria-label="Moonshot"><g transform="matrix(1,0,0,1,-12974,-11971.8)"><g transform="matrix(1.221,0,0,1.221,12226.7,11415)"><rect x="612" y="456" width="819" height="819" fill="rgb(53,11,111)"></rect><clipPath id="1BQRX40L"><rect x="612" y="456" width="819" height="819"></rect></clipPath><g clip-path="url(#1BQRX40L)"><g transform="matrix(0.819,0,0,0.819,-542.79,-3247.52)"><rect x="1410" y="4522" width="1000" height="1000" fill="rgb(52,40,114)"></rect></g><g transform="matrix(1,0,0,1,4.20664,3.31526)"><g transform="matrix(0.712493,0,0,0.712493,649.647,499.526)"><path d="M746.84,178.708C850.905,251.609 919,372.415 919,509C919,731.422 738.422,912 516,912C383.414,912 265.696,847.834 192.234,748.887C443.325,855.432 747.482,777.134 778.506,403.714C778.6,402.581 812.15,408.35 831.319,411.727C833.942,412.191 836.609,411.18 838.264,409.093C839.92,407.006 840.299,404.179 839.25,401.73C821.389,358.516 761.923,214.682 746.84,178.708Z" fill="white"></path></g><g transform="matrix(0.712493,0,0,0.712493,649.647,499.526)"><path d="M113.025,513.557C113.008,512.04 113,510.521 113,509C113,286.578 293.578,106 516,106C599.033,106 676.234,131.166 740.387,174.28C721.43,198.543 617.261,331.876 587.787,369.602C586.188,371.649 585.803,374.394 586.778,376.801C587.753,379.209 589.939,380.913 592.512,381.27C611.997,383.981 647.401,389.028 647.329,389.905C619.928,725.834 257.784,725.196 113.025,513.557Z" fill="rgb(255,136,254)"></path></g></g></g></g></g></svg>