<svg width="1em" height="1em" viewBox="0 0 11 11" fill="currentColor" xmlns="http://www.w3.org/2000/svg" ><path d="M5.27821 1.3517C6.48501 0.144939 8.44151 0.144918 9.6483 1.3517C10.8551 2.55849 10.8551 4.515 9.6483 5.72179L5.72179 9.6483C4.51499 10.8551 2.55849 10.8551 1.3517 9.6483C0.144923 8.44151 0.144909 6.48499 1.3517 5.27821L5.27821 1.3517Z" fill="white" stroke="#2D2F33" stroke-width="0.875"></path><path d="M3.53906 3.7239L1.59329 5.66965C0.610487 6.65245 0.651618 8.28702 1.68517 9.32057C2.71871 10.3541 4.35328 10.3952 5.33609 9.41244L7.28186 7.4667L3.53906 3.7239Z" fill="#52D48F"></path><path d="M3.35627 3.91386L3.86074 3.37177L7.64348 7.08877L7.1319 7.62797L3.35627 3.91386Z" fill="#2D2F33"></path></svg>