<svg width="16" height="16" viewBox="0 0 16 16" fill="none" xmlns="http://www.w3.org/2000/svg">
<path d="M6.42852 6.95629V6.39519C6.2408 6.3697 6.04998 6.35352 5.85502 6.35352C3.50866 6.35352 1.6001 8.26243 1.6001 10.6084C1.6001 12.0479 2.3193 13.322 3.4167 14.0921C2.70852 13.332 2.2883 12.3134 2.2883 11.195C2.2883 8.88243 4.12866 7.00968 6.42852 6.95595V6.95629Z" fill="#25F4EE"/>
<path d="M6.5289 13.1492C7.57567 13.1492 8.44195 12.3046 8.48087 11.2671L8.48982 2.01569L10.1676 2.01638L10.1649 2.0026C10.1297 1.81213 10.1104 1.61648 10.1104 1.41602H7.79887L7.79508 10.6805C7.75616 11.718 6.90228 12.5505 5.85551 12.5505C5.53001 12.5505 5.2238 12.4692 4.9541 12.3273C5.30716 12.8168 5.881 13.1492 6.52925 13.1492H6.5289Z" fill="#25F4EE"/>
<path d="M13.3262 5.17302V4.63018C12.6804 4.63018 12.079 4.43832 11.5747 4.10938C12.0239 4.62501 12.6339 5.02456 13.3262 5.17302Z" fill="#25F4EE"/>
<path d="M11.5751 4.11064C11.0833 3.54541 10.7843 2.8083 10.7843 2.00195H10.1543C10.3172 2.8827 10.8508 3.63841 11.5751 4.11064Z" fill="#FE2C55"/>
<path d="M5.85503 8.64526C4.78346 8.64526 3.89893 9.53461 3.89893 10.6062C3.89893 11.3522 4.33499 12.0005 4.95361 12.326C4.72318 12.0067 4.58575 11.6157 4.58575 11.1928C4.58575 10.1212 5.45754 9.24941 6.5291 9.24941C6.72923 9.24941 6.92108 9.28248 7.1026 9.33931V6.97918C6.91488 6.95369 6.72406 6.9375 6.5291 6.9375C6.49535 6.9375 6.46228 6.93922 6.42853 6.93991H6.41957L6.41337 8.72689C6.23185 8.67005 6.05515 8.64491 5.85503 8.64491V8.64526Z" fill="#FE2C55"/>
<path d="M13.3262 5.1466L13.3155 5.14453L13.3148 6.92944C12.1161 6.92944 11.0025 6.53505 10.0956 5.88405L10.0963 10.6067C10.0963 12.9531 8.20118 14.8499 5.85483 14.8499C4.94825 14.8499 4.10746 14.5758 3.4165 14.0904C4.19391 14.925 5.30096 15.4482 6.5289 15.4482C8.87526 15.4482 10.7838 13.5393 10.7838 11.1933V6.49544C11.6904 7.1461 12.8012 7.52981 13.9999 7.52981V5.21824C13.7688 5.21824 13.5435 5.1931 13.3262 5.1466Z" fill="#FE2C55"/>
<path d="M10.1099 10.6085V5.9106C11.0165 6.56125 12.1273 6.94496 13.326 6.94496V5.14834C12.6336 5.00023 12.0236 4.62823 11.5745 4.1126C10.8501 3.64036 10.3272 2.88465 10.1643 2.00391H8.47171L8.46793 11.2684C8.429 12.3059 7.57513 13.1384 6.52836 13.1384C5.88011 13.1384 5.30627 12.8181 4.95322 12.3286C4.33459 12.0031 3.91127 11.3549 3.91127 10.6088C3.91127 9.53725 4.78306 8.66546 5.85463 8.66546C6.05475 8.66546 6.2466 8.69853 6.42813 8.75536V6.9429C4.12827 6.99663 2.27344 8.88281 2.27344 11.1954C2.27344 12.3138 2.70778 13.3323 3.41596 14.0925C4.10691 14.5779 4.9477 14.8637 5.85428 14.8637C8.20064 14.8637 10.1092 12.9548 10.1092 10.6088L10.1099 10.6085Z" fill="white"/>
</svg>
