<svg width="14" height="14" viewBox="0 0 14 14" fill="none" xmlns="http://www.w3.org/2000/svg">
<g clip-path="url(#clip0_431_61003)">
<path d="M6.99935 11.0833L4.68352 12.4717C4.50206 12.5807 4.29437 12.6383 4.08268 12.6383C3.871 12.6383 3.6633 12.5807 3.48185 12.4717L1.73185 11.4217C1.55962 11.3182 1.41704 11.172 1.31791 10.9972C1.21878 10.8225 1.16646 10.6251 1.16602 10.4242V8.53417C1.16646 8.33325 1.21878 8.13585 1.31791 7.96109C1.41704 7.78633 1.55962 7.64014 1.73185 7.53667L4.08268 6.125L6.99935 7.875M6.99935 11.0833V7.875M6.99935 11.0833L9.31518 12.4717C9.49664 12.5807 9.70433 12.6383 9.91602 12.6383C10.1277 12.6383 10.3354 12.5807 10.5168 12.4717L12.2668 11.4217C12.4391 11.3182 12.5817 11.172 12.6808 10.9972C12.7799 10.8225 12.8322 10.6251 12.8327 10.4242V8.53417C12.8322 8.33325 12.7799 8.13585 12.6808 7.96109C12.5817 7.78633 12.4391 7.64014 12.2668 7.53667L9.91602 6.125L6.99935 7.875M6.99935 7.875L4.08268 9.625M6.99935 7.875L9.91602 9.625M4.08268 9.625L1.31768 7.9625M4.08268 9.625V12.6408M9.91602 9.625L12.681 7.9625M9.91602 9.625V12.6408" stroke="#EB397C" stroke-linecap="round" stroke-linejoin="round"/>
<path d="M6.9987 7.87509L4.08203 6.12509V3.57593C4.08247 3.37501 4.13479 3.17761 4.23392 3.00285C4.33306 2.8281 4.47564 2.6819 4.64786 2.57843L6.39786 1.52843C6.57932 1.41941 6.78701 1.36182 6.9987 1.36182C7.21038 1.36182 7.41808 1.41941 7.59953 1.52843L9.34953 2.57843C9.52176 2.6819 9.66434 2.8281 9.76347 3.00285C9.8626 3.17761 9.91492 3.37501 9.91536 3.57593V6.12509L6.9987 7.87509ZM6.9987 7.87509V4.66676M6.9987 4.66676L4.2337 3.00426M6.9987 4.66676L9.7637 3.00426" stroke="#EB397C" stroke-linecap="round" stroke-linejoin="round"/>
</g>
<defs>
<clipPath id="clip0_431_61003">
<rect width="14" height="14" fill="white"/>
</clipPath>
</defs>
</svg>
