<svg width="14" height="14" viewBox="0 0 14 14" fill="none" xmlns="http://www.w3.org/2000/svg">
<path fill-rule="evenodd" clip-rule="evenodd" d="M7 2.33317C5.91703 2.33317 4.87842 2.76338 4.11265 3.52915C3.34687 4.29492 2.91667 5.33354 2.91667 6.4165V11.4448C2.91665 11.4855 2.92724 11.5254 2.94738 11.5607C2.96753 11.5959 2.99654 11.6254 3.03155 11.646C3.06655 11.6666 3.10633 11.6777 3.14696 11.6783C3.18758 11.6788 3.22764 11.6687 3.26317 11.649L3.81325 11.3439C4.16401 11.149 4.55911 11.0478 4.96038 11.0502C5.36166 11.0525 5.75555 11.1583 6.104 11.3573L6.42133 11.5388C6.59758 11.6394 6.79703 11.6924 7 11.6924C7.20297 11.6924 7.40242 11.6394 7.57867 11.5388L7.896 11.3579C8.2444 11.1588 8.63826 11.0529 9.03954 11.0505C9.44082 11.048 9.83594 11.1491 10.1867 11.3439L10.7368 11.649C10.7724 11.6687 10.8124 11.6788 10.853 11.6783C10.8937 11.6777 10.9334 11.6666 10.9685 11.646C11.0035 11.6254 11.0325 11.5959 11.0526 11.5607C11.0728 11.5254 11.0834 11.4855 11.0833 11.4448V6.4165C11.0833 5.88027 10.9777 5.34929 10.7725 4.85388C10.5673 4.35847 10.2665 3.90832 9.88735 3.52915C9.50818 3.14998 9.05804 2.8492 8.56262 2.644C8.06721 2.43879 7.53623 2.33317 7 2.33317ZM1.75 6.4165C1.75 5.02412 2.30312 3.68876 3.28769 2.70419C4.27226 1.71963 5.60761 1.1665 7 1.1665C8.39239 1.1665 9.72774 1.71963 10.7123 2.70419C11.6969 3.68876 12.25 5.02412 12.25 6.4165V11.4448C12.25 12.5123 11.1032 13.1873 10.1704 12.6693L9.62033 12.3636C9.44489 12.2661 9.24728 12.2155 9.04658 12.2168C8.84589 12.218 8.6489 12.271 8.47467 12.3706L8.15792 12.5514C7.80529 12.753 7.40616 12.859 7 12.859C6.59384 12.859 6.19471 12.753 5.84208 12.5514L5.52533 12.3706C5.3511 12.271 5.15411 12.218 4.95342 12.2168C4.75272 12.2155 4.55511 12.2661 4.37967 12.3636L3.83017 12.6693C2.89683 13.1873 1.75 12.5123 1.75 11.4448V6.4165ZM6.125 6.12484C6.125 6.3569 6.03281 6.57946 5.86872 6.74356C5.70462 6.90765 5.48206 6.99984 5.25 6.99984C5.01794 6.99984 4.79538 6.90765 4.63128 6.74356C4.46719 6.57946 4.375 6.3569 4.375 6.12484C4.375 5.89277 4.46719 5.67021 4.63128 5.50612C4.79538 5.34202 5.01794 5.24984 5.25 5.24984C5.48206 5.24984 5.70462 5.34202 5.86872 5.50612C6.03281 5.67021 6.125 5.89277 6.125 6.12484ZM8.75 6.99984C8.98206 6.99984 9.20462 6.90765 9.36872 6.74356C9.53281 6.57946 9.625 6.3569 9.625 6.12484C9.625 5.89277 9.53281 5.67021 9.36872 5.50612C9.20462 5.34202 8.98206 5.24984 8.75 5.24984C8.51794 5.24984 8.29538 5.34202 8.13128 5.50612C7.96719 5.67021 7.875 5.89277 7.875 6.12484C7.875 6.3569 7.96719 6.57946 8.13128 6.74356C8.29538 6.90765 8.51794 6.99984 8.75 6.99984Z" fill="#EB397C"/>
</svg>
